<svg width="44" height="35" viewBox="0 0 44 35" fill="none" xmlns="http://www.w3.org/2000/svg">
<path d="M11 14H33V32H11V14Z" fill="#6A92F7"/>
<path d="M20 12C20 16.9706 16.4183 21 12 21C7.58172 21 4 16.9706 4 12C4 7.02944 7.58172 3 12 3C16.4183 3 20 7.02944 20 12Z" fill="#6A92F7"/>
<path d="M30 9C30 13.9706 26.4183 18 22 18C17.5817 18 14 13.9706 14 9C14 4.02944 17.5817 0 22 0C26.4183 0 30 4.02944 30 9Z" fill="#6A92F7"/>
<path d="M40 12C40 16.9706 36.4183 21 32 21C27.5817 21 24 16.9706 24 12C24 7.02944 27.5817 3 32 3C36.4183 3 40 7.02944 40 12Z" fill="#6A92F7"/>
<path d="M11 32H33V34.2632C33 34.6701 32.6922 35 32.3125 35H11.6875C11.3078 35 11 34.6701 11 34.2632V32Z" fill="white"/>
<path d="M17 11.2086C17 10.5411 17.6716 10 18.5 10C19.3284 10 20 10.5411 20 11.2086V16.7914C20 17.4589 19.3284 18 18.5 18C17.6716 18 17 17.4589 17 16.7914V11.2086Z" fill="white"/>
<path d="M21 11.2086C21 10.5411 21.4477 10 22 10C22.5523 10 23 10.5411 23 11.2086V16.7914C23 17.4589 22.5523 18 22 18C21.4477 18 21 17.4589 21 16.7914V11.2086Z" fill="white"/>
<path d="M24 11.2086C24 10.5411 24.6716 10 25.5 10C26.3284 10 27 10.5411 27 11.2086V16.7914C27 17.4589 26.3284 18 25.5 18C24.6716 18 24 17.4589 24 16.7914V11.2086Z" fill="white"/>
<path fill-rule="evenodd" clip-rule="evenodd" d="M31.1313 3.605C31.409 3.57239 31.6908 3.55566 31.9761 3.55566C35.5513 3.55566 38.5805 6.18155 39.6176 9.80965C39.34 9.84227 39.0582 9.85899 38.7729 9.85899C35.1976 9.85899 32.1685 7.2331 31.1313 3.605Z" fill="#3959FF"/>
</svg>
